<?xml version="1.0" encoding="UTF-8"?>
<svg xmlns="http://www.w3.org/2000/svg" xmlns:xlink="http://www.w3.org/1999/xlink" width="667px" height="667px" viewBox="0 0 375 375" version="1.1">
<g id="surface1">
<path style=" stroke:none;fill-rule:nonzero;fill:rgb(0%,0%,0%);fill-opacity:1;" d="M 231 107.324219 C 217.574219 111 205.726562 114.226562 204.675781 114.449219 C 203.101562 114.824219 202.425781 115.800781 201.148438 119.398438 C 200.25 121.875 199.726562 124.273438 200.023438 124.726562 C 200.25 125.101562 200.101562 125.25 199.726562 125.023438 C 199.273438 124.726562 198.75 125.175781 198.523438 126 C 198.300781 126.824219 198.449219 127.5 198.824219 127.5 C 199.199219 127.5 199.5 127.125 199.5 126.75 C 199.5 126.300781 200.101562 126.375 201 126.898438 C 201.824219 127.425781 202.5 128.25 202.5 128.773438 C 202.5 129.300781 203.023438 129.75 203.625 129.75 C 204.300781 129.75 204.75 130.425781 204.75 131.625 C 204.75 132.601562 205.273438 133.726562 205.949219 134.101562 C 206.851562 134.625 207.074219 135.449219 206.851562 136.800781 C 206.550781 138.148438 206.773438 138.976562 207.449219 139.273438 C 208.800781 139.800781 208.875 145.949219 207.601562 146.476562 C 207.074219 146.625 207.523438 147.074219 208.648438 147.375 C 210.375 147.824219 210.675781 148.199219 210.300781 149.773438 C 209.925781 151.199219 210.148438 151.648438 211.425781 152.023438 C 212.625 152.324219 212.851562 152.699219 212.25 153.375 C 211.574219 154.199219 211.726562 154.273438 212.925781 153.976562 C 214.050781 153.675781 214.5 153.898438 214.5 154.800781 C 214.5 155.476562 213.976562 156 213.375 156 C 212.023438 156 212.023438 156.375 213 158.175781 C 213.523438 159.226562 214.425781 159.523438 216.898438 159.300781 C 220.726562 159.074219 267.675781 146.625 268.648438 145.648438 C 269.699219 144.601562 257.851562 100.949219 256.425781 100.726562 C 255.898438 100.648438 244.425781 103.574219 231 107.324219 Z M 244.351562 119.25 C 245.699219 120.074219 247.199219 121.574219 247.648438 122.625 C 248.101562 123.675781 249.074219 124.5 249.824219 124.5 C 251.699219 124.5 252.523438 127.5 250.949219 128.625 C 250.273438 129.148438 249.75 130.425781 249.75 131.550781 C 249.75 134.25 248.023438 137.476562 245.699219 139.050781 C 243 140.773438 241.574219 140.550781 240.675781 138.226562 C 240 136.5 240.226562 135.976562 242.398438 134.023438 C 245.101562 131.550781 244.5 130.800781 240.601562 131.851562 C 238.726562 132.300781 238.050781 132.898438 237.898438 134.324219 C 237.226562 139.574219 234.300781 142.5 229.425781 142.5 C 227.773438 142.5 226.351562 141.75 224.476562 139.875 C 223.050781 138.449219 221.398438 137.25 220.800781 137.25 C 220.199219 137.25 219.375 136.351562 218.925781 135.226562 C 218.476562 134.101562 217.726562 132.898438 217.273438 132.523438 C 216.601562 132.148438 216.675781 132 217.5 132.074219 C 219.824219 132.300781 220.5 131.925781 220.5 130.5 C 220.5 127.949219 223.273438 123.375 225.375 122.398438 C 227.699219 121.351562 228.601562 121.726562 229.574219 124.351562 C 230.25 126 230.023438 126.523438 228.226562 127.949219 C 225.675781 129.976562 226.050781 130.5 229.351562 129.601562 C 231.148438 129.148438 231.75 128.550781 231.75 127.199219 C 231.75 123.976562 233.398438 120.601562 235.800781 119.175781 C 238.800781 117.375 241.273438 117.375 244.351562 119.25 Z M 217.800781 128.625 C 217.5 129.226562 216.824219 129.75 216.226562 129.75 C 215.25 129.75 215.25 129.523438 216 128.625 C 216.523438 128.023438 217.199219 127.5 217.574219 127.5 C 217.949219 127.5 218.023438 128.023438 217.800781 128.625 Z M 217.800781 128.625 "/>
<path style=" stroke:none;fill-rule:nonzero;fill:rgb(0%,0%,0%);fill-opacity:1;" d="M 238.125 125.324219 C 237.449219 127.273438 237.675781 127.425781 240.523438 126.601562 C 242.25 126.148438 242.851562 125.625 242.550781 124.875 C 241.875 123.148438 238.648438 123.449219 238.125 125.324219 Z M 238.125 125.324219 "/>
<path style=" stroke:none;fill-rule:nonzero;fill:rgb(0%,0%,0%);fill-opacity:1;" d="M 229.351562 134.773438 C 228.601562 134.925781 228 135.449219 228 135.824219 C 228 136.949219 231.226562 136.351562 231.601562 135.148438 C 231.898438 134.25 231.601562 134.175781 229.351562 134.773438 Z M 229.351562 134.773438 "/>
<path style=" stroke:none;fill-rule:nonzero;fill:rgb(0%,0%,0%);fill-opacity:1;" d="M 198 136.800781 C 198 136.949219 198.675781 137.25 199.5 137.476562 C 200.324219 137.699219 200.851562 137.550781 200.550781 137.175781 C 200.175781 136.5 198 136.199219 198 136.800781 Z M 198 136.800781 "/>
<path style=" stroke:none;fill-rule:nonzero;fill:rgb(0%,0%,0%);fill-opacity:1;" d="M 201.824219 140.699219 C 201.824219 141.523438 202.050781 141.75 202.273438 141.148438 C 202.5 140.625 202.425781 139.949219 202.199219 139.726562 C 201.976562 139.425781 201.75 139.875 201.824219 140.699219 Z M 201.824219 140.699219 "/>
<path style=" stroke:none;fill-rule:nonzero;fill:rgb(0%,0%,0%);fill-opacity:1;" d="M 189.300781 145.050781 C 184.050781 149.101562 180.75 153.148438 177.898438 158.625 C 176.175781 162.148438 168.976562 168.074219 163.800781 170.398438 C 161.101562 171.523438 159.226562 171.824219 155.550781 171.601562 C 151.125 171.300781 150.226562 171 143.925781 166.574219 C 138.824219 163.050781 136.199219 161.699219 133.800781 161.398438 C 129.300781 160.949219 127.574219 162.898438 124.5 172.199219 C 121.425781 181.351562 118.199219 188.625 115.800781 191.773438 C 112.574219 196.050781 112.351562 197.550781 114.601562 199.648438 C 118.5 203.25 126.523438 207.074219 134.625 209.175781 C 136.273438 209.625 142.726562 210.824219 148.875 211.875 C 162.976562 214.273438 171.148438 216.375 188.851562 222 C 219.074219 231.675781 232.875 233.476562 248.925781 229.875 C 255.976562 228.226562 256.800781 227.476562 256.800781 223.050781 C 256.726562 215.175781 252.976562 212.175781 237.523438 207.601562 C 232.125 205.949219 226.425781 204 224.851562 203.175781 C 220.949219 201.226562 219.824219 201.375 216.75 204.375 C 212.324219 208.648438 209.023438 206.023438 213 201.449219 C 217.050781 196.875 215.023438 195.449219 210.75 199.875 C 207.976562 202.726562 206.25 203.175781 204.75 201.375 C 203.925781 200.398438 204.148438 199.800781 206.25 197.625 C 207.898438 195.976562 208.5 194.699219 208.199219 193.875 C 207.824219 192.75 207.300781 193.050781 204.675781 195.375 C 203.023438 196.875 201.074219 198 200.398438 197.851562 C 198.300781 197.476562 198.449219 194.101562 200.625 192 C 202.574219 190.125 203.101562 188.25 201.601562 188.25 C 201.074219 188.25 199.648438 189.300781 198.375 190.5 C 194.25 194.476562 191.023438 191.25 195 187.125 C 198.824219 183.148438 197.324219 181.199219 193.351562 185.023438 C 191.625 186.675781 190.949219 186.898438 189.898438 186.300781 C 187.875 184.949219 188.023438 183.375 190.5 180.75 C 192.675781 178.425781 193.425781 176.25 192.148438 176.25 C 191.773438 176.25 190.875 176.925781 190.050781 177.824219 C 187.875 180.300781 186.074219 180.976562 184.800781 179.925781 C 183.074219 178.5 183.601562 176.699219 186.375 174 C 189 171.449219 189.75 169.5 188.101562 169.5 C 187.574219 169.5 186 170.699219 184.5 172.125 C 181.726562 174.898438 179.851562 175.050781 178.875 172.648438 C 178.574219 171.898438 179.550781 170.398438 181.574219 168.300781 C 184.199219 165.601562 184.574219 164.925781 183.824219 163.949219 C 183.300781 163.273438 181.726562 162.601562 180.300781 162.300781 C 178.875 162.074219 177.75 161.476562 177.75 160.949219 C 177.75 159.824219 182.625 152.476562 185.101562 149.773438 C 187.726562 147 193.050781 143.25 194.476562 143.25 C 195.074219 143.25 195.976562 142.726562 196.5 142.125 C 197.25 141.226562 197.175781 141 195.898438 141 C 195.074219 141 192.074219 142.800781 189.300781 145.050781 Z M 189.300781 145.050781 "/>
<path style=" stroke:none;fill-rule:nonzero;fill:rgb(0%,0%,0%);fill-opacity:1;" d="M 108 203.773438 C 105.226562 208.125 105.226562 209.175781 107.851562 211.648438 C 114.375 217.800781 125.175781 221.550781 147.375 225.449219 C 160.425781 227.773438 166.800781 229.351562 181.800781 234.074219 C 199.050781 239.550781 205.050781 240.75 217.5 241.273438 C 229.5 241.726562 238.875 240.601562 246.148438 237.675781 C 250.125 236.101562 255.375 232.648438 254.773438 231.976562 C 254.550781 231.824219 252.300781 232.273438 249.675781 232.949219 C 246.074219 233.925781 241.949219 234.300781 233.625 234.300781 C 219.824219 234.375 214.050781 233.175781 189 225.375 C 168 218.773438 162.375 217.351562 150 215.25 C 130.648438 212.023438 121.5 208.875 113.773438 203.023438 L 110.25 200.25 Z M 108 203.773438 "/>
<path style=" stroke:none;fill-rule:nonzero;fill:rgb(0%,0%,0%);fill-opacity:1;" d="M 93 251.023438 C 90.300781 252 88.5 254.550781 88.5 257.398438 C 88.5 260.773438 90 262.5 94.800781 264.675781 C 98.625 266.324219 99.675781 267.898438 98.175781 269.699219 C 97.199219 270.898438 92.550781 270.898438 89.851562 269.699219 C 88.726562 269.175781 88.5 269.476562 88.5 271.351562 C 88.5 274.050781 89.476562 274.5 94.949219 274.5 C 101.175781 274.5 104.175781 272.398438 104.25 268.125 C 104.25 264.898438 102.75 263.101562 97.949219 260.699219 C 93.75 258.601562 92.773438 257.023438 94.648438 255.148438 C 95.773438 254.023438 98.925781 253.949219 101.550781 255 C 103.351562 255.675781 103.5 255.523438 103.5 253.574219 C 103.5 252 103.050781 251.324219 101.851562 250.949219 C 99.75 250.425781 94.574219 250.425781 93 251.023438 Z M 93 251.023438 "/>
<path style=" stroke:none;fill-rule:nonzero;fill:rgb(0%,0%,0%);fill-opacity:1;" d="M 139.800781 251.550781 C 132.226562 255 131.324219 268.648438 138.375 273 C 141.675781 275.023438 147.824219 275.023438 151.125 273 C 154.726562 270.75 156.226562 267.074219 155.851562 261.226562 C 155.550781 256.949219 155.25 256.199219 152.851562 253.726562 C 150.523438 251.398438 149.550781 250.949219 146.101562 250.726562 C 143.699219 250.574219 141.226562 250.875 139.800781 251.550781 Z M 149.175781 256.949219 C 150.300781 258.375 150.75 260.023438 150.75 262.875 C 150.75 267.523438 149.25 269.773438 145.726562 270.449219 C 143.699219 270.824219 142.949219 270.523438 141 268.648438 C 139.050781 266.699219 138.75 265.800781 138.75 262.5 C 138.75 259.425781 139.125 258.300781 140.625 256.875 C 143.175781 254.25 147.074219 254.324219 149.175781 256.949219 Z M 149.175781 256.949219 "/>
<path style=" stroke:none;fill-rule:nonzero;fill:rgb(0%,0%,0%);fill-opacity:1;" d="M 181.726562 251.625 C 179.101562 252.75 177.75 254.699219 177.75 257.476562 C 177.75 260.023438 179.699219 262.199219 184.125 264.601562 C 187.050781 266.175781 187.875 267 187.875 268.5 C 187.875 270.226562 187.648438 270.375 184.125 270.375 C 182.101562 270.300781 179.773438 270 179.101562 269.699219 C 177.976562 269.175781 177.75 269.476562 177.75 271.425781 C 177.75 274.273438 179.398438 274.800781 186.148438 274.351562 C 191.550781 273.976562 193.5 272.25 193.5 267.75 C 193.5 264.601562 192.226562 263.175781 186.898438 260.25 C 182.773438 258 182.023438 256.125 184.875 254.851562 C 186.300781 254.175781 187.648438 254.175781 189.824219 254.773438 C 192.675781 255.523438 192.75 255.523438 192.75 253.5 C 192.75 252.300781 192.226562 251.25 191.550781 250.949219 C 189.523438 250.199219 184.199219 250.5 181.726562 251.625 Z M 181.726562 251.625 "/>
<path style=" stroke:none;fill-rule:nonzero;fill:rgb(0%,0%,0%);fill-opacity:1;" d="M 108.75 262.875 L 108.75 274.5 L 113.25 274.5 L 113.25 264.75 L 123.75 264.75 L 123.75 274.5 L 129 274.5 L 129 251.25 L 123.75 251.25 L 123.75 260.25 L 113.25 260.25 L 113.25 251.25 L 108.75 251.25 Z M 108.75 262.875 "/>
<path style=" stroke:none;fill-rule:nonzero;fill:rgb(0%,0%,0%);fill-opacity:1;" d="M 160.5 262.875 L 160.5 274.5 L 167.625 274.5 C 174.75 274.5 174.75 274.5 174.75 272.625 C 174.75 270.824219 174.523438 270.75 170.25 270.75 L 165.75 270.75 L 165.75 264.75 L 169.5 264.75 C 173.175781 264.75 173.25 264.675781 173.25 262.5 C 173.25 260.324219 173.175781 260.25 169.5 260.25 L 165.75 260.25 L 165.75 255 L 169.875 255 C 173.773438 255 174 254.925781 174 253.125 C 174 251.25 173.925781 251.25 167.25 251.25 L 160.5 251.25 Z M 160.5 262.875 "/>
<path style=" stroke:none;fill-rule:nonzero;fill:rgb(0%,0%,0%);fill-opacity:1;" d="M 233.398438 255.898438 L 233.25 261 L 222.75 261 L 222.75 258 C 222.75 255.449219 222.523438 255 221.25 255 C 220.351562 255 219.449219 254.25 219 253.273438 C 218.550781 252.226562 218.324219 255.449219 218.324219 263.023438 L 218.25 274.5 L 222.75 274.5 L 222.75 264.898438 L 227.699219 264.601562 C 230.398438 264.523438 232.800781 264.523438 232.949219 264.675781 C 233.101562 264.824219 233.25 267.148438 233.25 269.773438 L 233.25 274.5 L 237.75 274.5 L 237.675781 262.648438 C 237.601562 255.601562 237.375 251.773438 237 253.125 C 236.699219 254.324219 236.398438 254.851562 236.324219 254.25 C 236.25 253.351562 236.023438 253.425781 235.125 254.476562 C 234.148438 255.824219 234.074219 255.675781 233.773438 253.351562 C 233.625 252 233.398438 253.125 233.398438 255.898438 Z M 233.398438 255.898438 "/>
<path style=" stroke:none;fill-rule:nonzero;fill:rgb(0%,0%,0%);fill-opacity:1;" d="M 270 262.875 L 270 274.5 L 272.25 274.5 C 274.5 274.5 274.5 274.425781 274.5 270.449219 L 274.5 266.476562 L 278.324219 265.949219 C 283.5 265.273438 286.5 262.351562 286.5 258.226562 C 286.5 255.601562 284.324219 250.875 284.25 253.351562 C 284.25 253.875 283.875 254.101562 283.5 253.875 C 283.050781 253.574219 282.976562 253.050781 283.199219 252.601562 C 283.5 252.148438 283.351562 252 282.898438 252.300781 C 282.449219 252.523438 281.925781 252.449219 281.625 252 C 281.398438 251.625 280.425781 251.25 279.523438 251.324219 C 277.949219 251.324219 277.949219 251.398438 279.75 252.148438 C 281.398438 252.824219 281.476562 252.976562 280.273438 253.425781 C 279 253.875 279 254.023438 280.425781 255.300781 C 283.648438 258.226562 281.625 262.5 277.050781 262.5 L 274.5 262.5 L 274.5 258.074219 C 274.5 254.023438 274.351562 253.574219 272.851562 253.351562 C 271.875 253.199219 271.199219 252.675781 271.351562 252.148438 C 271.425781 251.699219 271.199219 251.25 270.75 251.25 C 270.300781 251.25 270 255.601562 270 262.875 Z M 270 262.875 "/>
<path style=" stroke:none;fill-rule:nonzero;fill:rgb(0%,0%,0%);fill-opacity:1;" d="M 259.726562 252.449219 C 260.023438 252.976562 259.273438 253.5 257.773438 253.875 C 255.523438 254.324219 255.449219 254.398438 256.949219 255.148438 C 261.226562 257.175781 261.449219 266.625 257.324219 269.773438 C 255.449219 271.199219 252.300781 270.898438 250.125 269.023438 C 246.523438 265.949219 246.898438 258.074219 250.648438 255.375 C 251.476562 254.851562 252 254.023438 251.699219 253.648438 C 251.175781 252.824219 247.5 253.425781 247.5 254.324219 C 247.5 254.699219 247.050781 254.773438 246.449219 254.550781 C 244.949219 253.949219 243 258.75 243 263.023438 C 243 264.976562 243.601562 267.824219 244.351562 269.25 C 247.726562 276.148438 260.023438 276.226562 263.550781 269.476562 C 266.398438 263.925781 265.648438 257.550781 261.675781 253.875 C 260.324219 252.601562 259.5 252 259.726562 252.449219 Z M 259.726562 252.449219 "/>
<path style=" stroke:none;fill-rule:nonzero;fill:rgb(0%,0%,0%);fill-opacity:1;" d="M 198.75 254.175781 C 197.851562 255.976562 197.773438 259.5 198.675781 260.925781 C 199.050781 261.523438 201.300781 263.023438 203.699219 264.300781 C 208.800781 267 209.476562 268.949219 205.949219 270.601562 C 204.148438 271.5 203.398438 271.5 200.925781 270.523438 L 198 269.398438 L 198 271.5 C 198 273.976562 199.050781 274.5 204.074219 274.5 C 210.148438 274.5 213 272.398438 213 268.050781 C 213 264.898438 211.648438 263.324219 207 261 C 203.773438 259.425781 202.5 258.300781 202.5 257.25 C 202.5 256.425781 201.824219 255.449219 201 255 C 200.175781 254.550781 199.648438 253.875 199.875 253.425781 C 200.175781 253.050781 200.175781 252.75 199.949219 252.75 C 199.726562 252.75 199.199219 253.425781 198.75 254.175781 Z M 198.75 254.175781 "/>
<path style=" stroke:none;fill-rule:nonzero;fill:rgb(0%,0%,0%);fill-opacity:1;" d="M 253.125 253.5 C 252.898438 253.875 253.199219 254.25 253.875 254.25 C 254.550781 254.25 254.851562 253.875 254.625 253.5 C 254.398438 253.050781 254.023438 252.75 253.875 252.75 C 253.726562 252.75 253.351562 253.050781 253.125 253.5 Z M 253.125 253.5 "/>
<path style=" stroke:none;fill-rule:nonzero;fill:rgb(0%,0%,0%);fill-opacity:1;" d="M 205.726562 254.023438 C 206.398438 254.175781 207.601562 254.175781 208.351562 254.023438 C 209.023438 253.800781 208.425781 253.648438 207 253.648438 C 205.574219 253.648438 204.976562 253.800781 205.726562 254.023438 Z M 205.726562 254.023438 "/>
<path style=" stroke:none;fill-rule:nonzero;fill:rgb(0%,0%,0%);fill-opacity:1;" d="M 275.851562 254.023438 C 276.300781 254.175781 277.199219 254.175781 277.726562 254.023438 C 278.175781 253.800781 277.800781 253.648438 276.75 253.648438 C 275.699219 253.648438 275.324219 253.800781 275.851562 254.023438 Z M 275.851562 254.023438 "/>
</g>
</svg>
